<?xml version="1.0" standalone="no"?>
<!DOCTYPE svg PUBLIC "-//W3C//DTD SVG 20010904//EN"
 "http://www.w3.org/TR/2001/REC-SVG-20010904/DTD/svg10.dtd">
<svg version="1.0" xmlns="http://www.w3.org/2000/svg"
 width="1536.000000pt" height="1536.000000pt" viewBox="0 0 1536.000000 1536.000000"
 preserveAspectRatio="xMidYMid meet">

<g transform="translate(0.000000,1536.000000) scale(0.100000,-0.100000)"
fill="#000000" stroke="none">
<path d="M0 7680 l0 -7680 7680 0 7680 0 0 7680 0 7680 -7680 0 -7680 0 0
-7680z m6632 2854 l1025 -1032 874 877 c481 482 1221 1224 1644 1649 l770 772
915 -916 915 -915 -1650 -1644 -1650 -1643 1095 -1088 c602 -598 1344 -1336
1649 -1640 l555 -553 -551 -558 c-304 -307 -716 -722 -916 -921 l-364 -364
-959 964 c-527 529 -1266 1271 -1642 1648 l-683 685 -1642 -1648 -1642 -1648
-917 918 c-505 505 -918 921 -918 924 0 4 739 741 1643 1639 903 898 1643
1636 1645 1639 1 4 -737 743 -1640 1642 -904 898 -1645 1638 -1647 1644 -2 5
409 420 915 922 l919 912 615 -617 c339 -339 1077 -1081 1642 -1648z"/>
</g>
</svg>
